# xmcd
#
# Track frame offsets:
#	150
#	25285
#	59057
#	85280
#	110599
#	126643
#	150365
#	166858
#	183021
#	218349
#	236175
#	253770
#	267347
#	293044
#	318118
#
# Disc length: 4399 seconds
#
# Revision: 0
# Processed by: cddbd v1.5.2PL0 Copyright (c) Steve Scherf et al.
# Submitted via: audiograbber 1.83.01
#
DISCID=d1112d0f
DTITLE=Various Artist - Prince In Jazz
DYEAR=2018
DGENRE=Jazz/Funk
TTITLE0=Nina Simone - Sign O'The Times [outtake]
TTITLE1=Herbie Hancock - Thieves In The Temple
TTITLE2=Randy Crawford - Purple Rain
TTITLE3=Bob Belden Project featuring Cassandra Wilson - When Doves Cry
TTITLE4=Heath Brandon - Little Red Corvette
TTITLE5=Clotilde Rullaud - Kiss
TTITLE6=Bob Belden Project featuring Holly Cole - The Question Of U
TTITLE7=Viktoria Tolstoy featuring Lars Danielsson and Jacob Karlzon - Strollin'
TTITLE8=Bob Belden's Manhattan Rhythm Club - 1999
TTITLE9=Osunlade - Crazy You
TTITLE10=Ray Lema and Laurent De Wilde - Around The World In A Day
TTITLE11=N'Dambi - Soft And Wet
TTITLE12=Angela Galuppo - I Feel For You
TTITLE13=David Helbock - Cream
TTITLE14=Heinz Sauer and Michael Wollny - Nothing Compares 2 U
EXTD=
EXTT0=
EXTT1=
EXTT2=
EXTT3=
EXTT4=
EXTT5=
EXTT6=
EXTT7=
EXTT8=
EXTT9=
EXTT10=
EXTT11=
EXTT12=
EXTT13=
EXTT14=
PLAYORDER=
